<?xml version="1.0" standalone="no"?>
<!DOCTYPE svg PUBLIC "-//W3C//DTD SVG 20010904//EN"
 "http://www.w3.org/TR/2001/REC-SVG-20010904/DTD/svg10.dtd">
<svg version="1.0" xmlns="http://www.w3.org/2000/svg"
 width="1280.000000pt" height="1186.000000pt" viewBox="0 0 1280.000000 1186.000000"
 preserveAspectRatio="xMidYMid meet">
<metadata>
Created by potrace 1.15, written by Peter Selinger 2001-2017
</metadata>
<g transform="translate(0.000000,1186.000000) scale(0.100000,-0.100000)"
fill="#000000" stroke="none">
<path d="M8096 11853 c-11 -3 -483 -321 -1049 -707 -566 -385 -1033 -700
-1037 -699 -3 1 -431 283 -951 626 -519 343 -959 631 -976 640 -37 20 -77 21
-115 4 -15 -7 -357 -307 -760 -667 -490 -438 -740 -654 -753 -653 -11 0 -504
85 -1096 188 l-1077 188 -38 -19 c-55 -27 -79 -66 -78 -122 0 -41 56 -158 453
-949 276 -551 450 -907 445 -915 -4 -7 -243 -388 -531 -845 -321 -510 -526
-845 -530 -866 -3 -19 1 -48 10 -67 8 -22 216 -243 533 -569 285 -293 520
-539 522 -546 2 -7 -13 -63 -32 -126 -19 -63 -161 -530 -317 -1039 -155 -509
-286 -944 -292 -966 -15 -61 -2 -107 39 -143 61 -54 85 -50 375 74 134 56 245
102 246 101 2 -1 -19 -73 -95 -321 -22 -71 -38 -131 -37 -133 6 -6 1723 723
1719 730 -3 5 -15 1 -27 -7 -12 -8 -26 -15 -32 -15 -5 1 2 8 18 16 15 8 27 18
27 22 0 5 -22 58 -49 118 -27 60 -56 126 -64 146 l-16 37 -128 -53 c-70 -30
-290 -122 -488 -206 -356 -151 -494 -209 -610 -257 -33 -14 -90 -38 -127 -54
-69 -30 -102 -38 -58 -15 49 27 1412 598 1416 593 6 -6 145 -315 336 -747 93
-212 179 -405 190 -428 29 -60 69 -84 134 -79 43 3 63 12 123 56 40 29 78 54
84 57 8 2 42 -65 91 -178 44 -101 81 -185 82 -187 7 -8 54 30 51 42 -1 6 3 11
8 10 10 -1 866 1079 860 1085 -8 8 -1054 -761 -1057 -776 -3 -16 -4 -16 -10
-1 -5 13 101 95 475 367 265 193 526 382 579 421 l98 71 -227 -288 c-125 -158
-326 -413 -448 -567 -121 -154 -232 -296 -245 -315 -14 -19 -117 -152 -230
-295 -1210 -1531 -1706 -2165 -1717 -2196 -20 -60 6 -127 61 -153 45 -21 94
-20 131 3 17 10 395 335 841 722 447 387 897 777 1000 865 104 89 878 760
1720 1491 l1531 1330 247 -133 c236 -126 332 -182 199 -115 -35 17 -63 29 -63
26 0 -2 32 -21 71 -40 39 -20 68 -31 64 -25 -4 6 20 -3 54 -20 34 -16 61 -33
61 -35 0 -3 -22 6 -50 20 -27 14 -50 23 -50 20 0 -2 27 -19 61 -35 34 -17 58
-26 54 -20 -4 6 20 -3 54 -20 34 -16 61 -33 61 -35 0 -3 -24 6 -52 21 -29 14
-48 22 -43 16 15 -14 245 -134 245 -128 0 3 -27 19 -60 36 -33 17 -60 33 -60
36 0 6 230 -114 245 -128 6 -6 -18 4 -52 21 -35 17 -63 29 -63 26 0 -2 32 -21
71 -40 39 -20 68 -31 64 -25 -4 6 20 -3 54 -20 34 -16 61 -33 61 -35 0 -3 -22
6 -50 20 -27 14 -50 23 -50 21 0 -2 80 -47 178 -99 240 -128 226 -121 217
-107 -4 6 20 -3 54 -20 34 -16 61 -33 61 -35 0 -3 -24 6 -52 21 -29 14 -48 22
-43 17 6 -6 147 -83 314 -172 l304 -163 41 39 c115 106 145 137 140 145 -3 5
0 7 8 6 7 -2 12 3 10 10 -1 8 2 11 6 8 13 -8 423 384 415 397 -3 6 -1 7 4 4 6
-4 19 3 29 16 19 21 19 21 -1 7 -11 -8 -4 3 14 23 19 20 37 37 40 37 2 0 -6
-11 -19 -25 -13 -14 -19 -25 -14 -25 5 0 32 23 59 52 28 29 42 46 33 39 -29
-22 -20 -7 14 25 18 16 24 19 14 7 -11 -13 -15 -23 -9 -23 15 0 44 36 36 44
-5 4 -1 6 7 4 8 -1 14 2 13 8 -1 6 10 22 25 35 25 22 26 22 8 2 -11 -13 -15
-23 -9 -23 13 0 55 45 48 52 -3 2 5 13 17 24 18 15 20 16 9 2 -19 -26 2 -22
25 4 12 14 14 18 4 13 -8 -4 -4 4 9 18 14 15 27 27 29 27 3 0 -3 -9 -13 -20
-10 -11 -14 -20 -8 -20 5 0 20 12 34 27 13 14 17 22 9 18 -10 -5 -8 -1 4 13
21 25 36 31 16 7 -7 -8 -8 -15 -2 -15 12 0 34 25 27 32 -3 3 3 11 12 19 16 13
17 12 4 -4 -7 -9 -9 -17 -3 -17 13 0 33 25 26 32 -3 3 10 16 28 28 l33 22 -30
-26 c-16 -14 -26 -26 -22 -26 16 0 67 41 62 50 -3 4 3 14 13 21 15 13 16 12 3
-4 -14 -18 -2 -24 14 -8 6 6 72 -8 170 -35 88 -25 385 -105 660 -179 868 -232
1235 -335 1320 -371 19 -8 35 -11 35 -7 0 4 -36 129 -81 278 -44 148 -125 419
-179 600 -54 182 -135 454 -180 605 -45 151 -88 293 -96 315 l-14 40 5 -35 c4
-28 2 -31 -6 -17 -13 22 -8 52 9 52 11 0 750 1290 814 1421 l20 41 -92 156
c-51 86 -96 155 -100 152 -5 -3 -12 0 -16 6 -4 8 -3 9 4 5 7 -4 12 -5 12 -2 0
9 -131 235 -393 677 l-246 416 35 189 c33 177 49 262 124 664 17 88 44 232 60
320 17 88 44 232 60 320 17 88 44 233 61 323 42 227 42 227 35 227 -6 0 -309
-81 -313 -84 -3 -2 -283 -1502 -285 -1527 -1 -16 34 -86 101 -198 56 -95 101
-175 98 -177 -2 -2 -52 77 -111 177 l-107 181 20 102 c23 114 246 1318 311
1674 50 274 49 301 -6 350 -29 24 -47 32 -77 32 -22 0 -505 -127 -1072 -281
l-1033 -282 -818 540 c-451 297 -833 548 -851 557 -32 16 -60 18 -97 9z m4199
-1103 c-11 -5 -27 -9 -35 -9 -9 0 -8 4 5 9 11 5 27 9 35 9 9 0 8 -4 -5 -9z
m-70 -20 c-11 -5 -27 -9 -35 -9 -9 0 -8 4 5 9 11 5 27 9 35 9 9 0 8 -4 -5 -9z
m92 -22 c-3 -8 -6 -5 -6 6 -1 11 2 17 5 13 3 -3 4 -12 1 -19z m-150 6 c-3 -3
-12 -4 -19 -1 -8 3 -5 6 6 6 11 1 17 -2 13 -5z m-92 -24 c-11 -5 -27 -9 -35
-9 -9 0 -8 4 5 9 11 5 27 9 35 9 9 0 8 -4 -5 -9z m232 -32 c-3 -7 -5 -2 -5 12
0 14 2 19 5 13 2 -7 2 -19 0 -25z m-13 -77 c-4 -23 -9 -40 -11 -37 -3 3 -2 23
2 46 4 23 9 39 11 37 3 -2 2 -23 -2 -46z m-20 -105 c-3 -21 -8 -35 -11 -32 -2
2 -1 20 3 40 3 21 8 35 11 32 2 -2 1 -20 -3 -40z m-17 -88 c-3 -8 -6 -5 -6 6
-1 11 2 17 5 13 3 -3 4 -12 1 -19z m-10 -50 c-3 -7 -5 -2 -5 12 0 14 2 19 5
13 2 -7 2 -19 0 -25z m-13 -77 c-4 -23 -9 -40 -11 -37 -3 3 -2 23 2 46 4 23 9
39 11 37 3 -2 2 -23 -2 -46z m-20 -105 c-3 -21 -8 -35 -11 -32 -2 2 -1 20 3
40 3 21 8 35 11 32 2 -2 1 -20 -3 -40z m-17 -88 c-3 -8 -6 -5 -6 6 -1 11 2 17
5 13 3 -3 4 -12 1 -19z m-10 -50 c-3 -7 -5 -2 -5 12 0 14 2 19 5 13 2 -7 2
-19 0 -25z m-13 -77 c-4 -23 -9 -40 -11 -37 -3 3 -2 23 2 46 4 23 9 39 11 37
3 -2 2 -23 -2 -46z m-20 -105 c-3 -21 -8 -35 -11 -32 -2 2 -1 20 3 40 3 21 8
35 11 32 2 -2 1 -20 -3 -40z m-17 -88 c-3 -8 -6 -5 -6 6 -1 11 2 17 5 13 3 -3
4 -12 1 -19z m-10 -50 c-3 -7 -5 -2 -5 12 0 14 2 19 5 13 2 -7 2 -19 0 -25z
m-13 -77 c-4 -23 -9 -40 -11 -37 -3 3 -2 23 2 46 4 23 9 39 11 37 3 -2 2 -23
-2 -46z m-20 -105 c-3 -21 -8 -35 -11 -32 -2 2 -1 20 3 40 3 21 8 35 11 32 2
-2 1 -20 -3 -40z m-17 -88 c-3 -8 -6 -5 -6 6 -1 11 2 17 5 13 3 -3 4 -12 1
-19z m-10 -50 c-3 -7 -5 -2 -5 12 0 14 2 19 5 13 2 -7 2 -19 0 -25z m-13 -77
c-4 -23 -9 -40 -11 -37 -3 3 -2 23 2 46 4 23 9 39 11 37 3 -2 2 -23 -2 -46z
m-20 -105 c-3 -21 -8 -35 -11 -32 -2 2 -1 20 3 40 3 21 8 35 11 32 2 -2 1 -20
-3 -40z m-17 -88 c-3 -8 -6 -5 -6 6 -1 11 2 17 5 13 3 -3 4 -12 1 -19z m-10
-50 c-3 -7 -5 -2 -5 12 0 14 2 19 5 13 2 -7 2 -19 0 -25z m-13 -77 c-4 -23 -9
-40 -11 -37 -3 3 -2 23 2 46 4 23 9 39 11 37 3 -2 2 -23 -2 -46z m-20 -105
c-3 -21 -8 -35 -11 -32 -2 2 -1 20 3 40 3 21 8 35 11 32 2 -2 1 -20 -3 -40z
m-14 -93 c0 -19 -3 -24 -10 -17 -6 6 -8 18 -4 27 9 24 14 21 14 -10z m610
-1103 c10 -21 10 -23 -1 -13 -10 10 -15 8 -24 -15 -10 -22 -210 -377 -732
-1299 -62 -109 -74 -138 -68 -160 3 -16 122 -413 262 -883 141 -470 258 -873
260 -895 8 -80 -60 -155 -142 -155 -23 0 -96 18 -162 40 -135 44 -479 139
-1283 355 -300 80 -583 157 -629 171 -98 28 -77 36 -232 -87 -147 -116 -246
-206 -652 -593 -197 -188 -368 -346 -380 -353 -12 -7 -35 -13 -52 -13 -27 -1
-28 -2 -12 -13 53 -34 44 -33 -30 4 -46 22 -83 42 -83 45 0 2 14 -3 32 -12 22
-11 48 -15 84 -12 62 5 22 -28 449 378 399 381 558 523 728 649 54 41 59 43
95 34 20 -6 136 -38 257 -71 121 -33 357 -97 525 -142 168 -45 404 -108 525
-142 121 -33 245 -67 275 -75 108 -28 326 -93 414 -123 101 -34 155 -38 196
-13 32 19 70 80 70 114 0 12 -18 82 -39 153 -63 209 -230 769 -351 1176 -61
206 -119 400 -129 431 l-18 55 404 715 c223 393 410 729 415 747 5 19 11 32
12 30 2 -1 9 -14 16 -28z m60 -100 c6 -11 8 -20 6 -20 -3 0 -10 9 -16 20 -6
11 -8 20 -6 20 3 0 10 -9 16 -20z m49 -85 c13 -22 15 -31 6 -20 -18 22 -53 86
-38 70 6 -5 20 -28 32 -50z m51 -85 c6 -11 8 -20 6 -20 -3 0 -10 9 -16 20 -6
11 -8 20 -6 20 3 0 10 -9 16 -20z m30 -50 c6 -11 8 -20 6 -20 -3 0 -10 9 -16
20 -6 11 -8 20 -6 20 3 0 10 -9 16 -20z m5 -69 c-21 -43 -29 -39 -8 4 9 19 18
33 21 31 2 -2 -4 -18 -13 -35z m-40 -71 c-9 -16 -18 -30 -21 -30 -2 0 2 14 11
30 9 17 18 30 21 30 2 0 -2 -13 -11 -30z m-40 -70 c-9 -16 -18 -30 -21 -30 -2
0 2 14 11 30 9 17 18 30 21 30 2 0 -2 -13 -11 -30z m-32 -55 c-3 -9 -8 -14
-10 -11 -3 3 -2 9 2 15 9 16 15 13 8 -4z m-23 -45 c-6 -11 -13 -20 -16 -20 -2
0 0 9 6 20 6 11 13 20 16 20 2 0 0 -9 -6 -20z m-40 -70 c-6 -11 -13 -20 -16
-20 -2 0 0 9 6 20 6 11 13 20 16 20 2 0 0 -9 -6 -20z m-40 -70 c-6 -11 -13
-20 -16 -20 -2 0 0 9 6 20 6 11 13 20 16 20 2 0 0 -9 -6 -20z m-40 -70 c-6
-11 -13 -20 -16 -20 -2 0 0 9 6 20 6 11 13 20 16 20 2 0 0 -9 -6 -20z m-45
-80 c-9 -16 -18 -30 -21 -30 -2 0 2 14 11 30 9 17 18 30 21 30 2 0 -2 -13 -11
-30z m-40 -70 c-9 -16 -18 -30 -21 -30 -2 0 2 14 11 30 9 17 18 30 21 30 2 0
-2 -13 -11 -30z m-40 -70 c-9 -16 -18 -30 -21 -30 -2 0 2 14 11 30 9 17 18 30
21 30 2 0 -2 -13 -11 -30z m-32 -55 c-3 -9 -8 -14 -10 -11 -3 3 -2 9 2 15 9
16 15 13 8 -4z m-23 -45 c-6 -11 -13 -20 -16 -20 -2 0 0 9 6 20 6 11 13 20 16
20 2 0 0 -9 -6 -20z m-40 -70 c-6 -11 -13 -20 -16 -20 -2 0 0 9 6 20 6 11 13
20 16 20 2 0 0 -9 -6 -20z m-40 -70 c-6 -11 -13 -20 -16 -20 -2 0 0 9 6 20 6
11 13 20 16 20 2 0 0 -9 -6 -20z m-45 -80 c-9 -16 -18 -30 -21 -30 -2 0 2 14
11 30 9 17 18 30 21 30 2 0 -2 -13 -11 -30z m-40 -70 c-9 -16 -18 -30 -21 -30
-2 0 2 14 11 30 9 17 18 30 21 30 2 0 -2 -13 -11 -30z m-40 -70 c-9 -16 -18
-30 -21 -30 -2 0 2 14 11 30 9 17 18 30 21 30 2 0 -2 -13 -11 -30z m-32 -55
c-3 -9 -8 -14 -10 -11 -3 3 -2 9 2 15 9 16 15 13 8 -4z m-29 -55 c-10 -16 -20
-28 -22 -26 -4 5 28 56 35 56 2 0 -4 -13 -13 -30z m-34 -60 c-6 -11 -13 -20
-16 -20 -2 0 0 9 6 20 6 11 13 20 16 20 2 0 0 -9 -6 -20z m-40 -70 c-6 -11
-13 -20 -16 -20 -2 0 0 9 6 20 6 11 13 20 16 20 2 0 0 -9 -6 -20z m-11 -185
c0 -5 -4 -3 -9 5 -5 8 -9 22 -9 30 0 16 17 -16 18 -35z m20 -65 c0 -10 -3 -8
-9 5 -12 27 -12 43 0 25 5 -8 9 -22 9 -30z m20 -70 c0 -9 -4 -8 -9 5 -5 11 -9
27 -9 35 0 9 4 8 9 -5 5 -11 9 -27 9 -35z m20 -65 c0 -5 -4 -3 -9 5 -5 8 -9
22 -9 30 0 16 17 -16 18 -35z m40 -135 c0 -9 -4 -8 -9 5 -5 11 -9 27 -9 35 0
9 4 8 9 -5 5 -11 9 -27 9 -35z m20 -65 c0 -5 -4 -3 -9 5 -5 8 -9 22 -9 30 0
16 17 -16 18 -35z m40 -135 c0 -10 -3 -8 -9 5 -12 27 -12 43 0 25 5 -8 9 -22
9 -30z m20 -70 c0 -9 -4 -8 -9 5 -5 11 -9 27 -9 35 0 9 4 8 9 -5 5 -11 9 -27
9 -35z m20 -65 c0 -5 -4 -3 -9 5 -5 8 -9 22 -9 30 0 16 17 -16 18 -35z m40
-135 c0 -9 -4 -8 -9 5 -5 11 -9 27 -9 35 0 9 4 8 9 -5 5 -11 9 -27 9 -35z m20
-65 c0 -5 -4 -3 -9 5 -5 8 -9 22 -9 30 0 16 17 -16 18 -35z m40 -135 c0 -9 -4
-8 -9 5 -5 11 -9 27 -9 35 0 9 4 8 9 -5 5 -11 9 -27 9 -35z m20 -65 c0 -5 -4
-3 -9 5 -5 8 -9 22 -9 30 0 16 17 -16 18 -35z m-1934 -25 c13 -5 14 -9 5 -9
-8 0 -24 4 -35 9 -13 5 -14 9 -5 9 8 0 24 -4 35 -9z m1954 -45 c0 -5 -4 -3 -9
5 -5 8 -9 22 -9 30 0 16 17 -16 18 -35z m-1872 19 c-3 -3 -12 -4 -19 -1 -8 3
-5 6 6 6 11 1 17 -2 13 -5z m58 -14 c13 -5 14 -9 5 -9 -8 0 -24 4 -35 9 -13 5
-14 9 -5 9 8 0 24 -4 35 -9z m70 -20 c13 -5 14 -9 5 -9 -8 0 -24 4 -35 9 -13
5 -14 9 -5 9 8 0 24 -4 35 -9z m75 -20 c20 -6 21 -8 5 -8 -11 0 -29 3 -40 8
-25 11 1 11 35 0z m1689 -30 c0 -10 -3 -8 -9 5 -12 27 -12 43 0 25 5 -8 9 -22
9 -30z m-1614 10 c13 -5 14 -9 5 -9 -8 0 -24 4 -35 9 -13 5 -14 9 -5 9 8 0 24
-4 35 -9z m70 -20 c13 -5 14 -9 5 -9 -8 0 -24 4 -35 9 -13 5 -14 9 -5 9 8 0
24 -4 35 -9z m75 -20 c20 -6 21 -8 5 -8 -11 0 -29 3 -40 8 -25 11 1 11 35 0z
m1489 -40 c0 -9 -4 -8 -9 5 -5 11 -9 27 -9 35 0 9 4 8 9 -5 5 -11 9 -27 9 -35z
m-1414 20 c13 -5 14 -9 5 -9 -8 0 -24 4 -35 9 -13 5 -14 9 -5 9 8 0 24 -4 35
-9z m70 -20 c13 -5 14 -9 5 -9 -8 0 -24 4 -35 9 -13 5 -14 9 -5 9 8 0 24 -4
35 -9z m92 -26 c-3 -3 -12 -4 -19 -1 -8 3 -5 6 6 6 11 1 17 -2 13 -5z m1272
-39 c0 -5 -4 -3 -9 5 -5 8 -9 22 -9 30 0 16 17 -16 18 -35z m-1209 25 c20 -6
21 -8 5 -8 -11 0 -29 3 -40 8 -25 11 1 11 35 0z m75 -20 c13 -5 14 -9 5 -9 -8
0 -24 4 -35 9 -13 5 -14 9 -5 9 8 0 24 -4 35 -9z m70 -20 c13 -5 14 -9 5 -9
-8 0 -24 4 -35 9 -13 5 -14 9 -5 9 8 0 24 -4 35 -9z m1084 -50 c0 -10 -3 -8
-9 5 -12 27 -12 43 0 25 5 -8 9 -22 9 -30z m-992 24 c-3 -3 -12 -4 -19 -1 -8
3 -5 6 6 6 11 1 17 -2 13 -5z m63 -14 c20 -6 21 -8 5 -8 -11 0 -29 3 -40 8
-25 11 1 11 35 0z m75 -20 c13 -5 14 -9 5 -9 -8 0 -24 4 -35 9 -13 5 -14 9 -5
9 8 0 24 -4 35 -9z m70 -20 c13 -5 14 -9 5 -9 -8 0 -24 4 -35 9 -13 5 -14 9
-5 9 8 0 24 -4 35 -9z m804 -40 c0 -9 -4 -8 -9 5 -5 11 -9 27 -9 35 0 9 4 8 9
-5 5 -11 9 -27 9 -35z m-752 24 c-3 -3 -12 -4 -19 -1 -8 3 -5 6 6 6 11 1 17
-2 13 -5z m40 -10 c-3 -3 -12 -4 -19 -1 -8 3 -5 6 6 6 11 1 17 -2 13 -5z m58
-14 c13 -5 14 -9 5 -9 -8 0 -24 4 -35 9 -13 5 -14 9 -5 9 8 0 24 -4 35 -9z
m70 -20 c13 -5 14 -9 5 -9 -8 0 -24 4 -35 9 -13 5 -14 9 -5 9 8 0 24 -4 35 -9z
m604 -45 c0 -5 -4 -3 -9 5 -5 8 -9 22 -9 30 0 16 17 -16 18 -35z m-474 9 c38
-13 38 -13 5 -7 -19 3 -53 12 -75 19 -38 13 -38 13 -5 7 19 -3 53 -12 75 -19z
m90 -24 c13 -5 14 -9 5 -9 -8 0 -24 4 -35 9 -13 5 -14 9 -5 9 8 0 24 -4 35 -9z
m125 -36 c55 -20 22 -16 -45 6 -33 11 -44 17 -25 13 19 -3 50 -11 70 -19z m85
-24 c13 -5 14 -9 5 -9 -8 0 -24 4 -35 9 -13 5 -14 9 -5 9 8 0 24 -4 35 -9z
m-2575 -3 c0 -1 -46 -47 -102 -102 l-103 -100 100 103 c93 95 105 107 105 99z
m2657 -23 c-3 -3 -12 -4 -19 -1 -8 3 -5 6 6 6 11 1 17 -2 13 -5z m138 -52 c-1
-2 -18 4 -36 12 -31 14 -32 15 -5 9 26 -5 28 -4 22 18 -4 17 -2 16 8 -6 8 -16
13 -31 11 -33z m-4165 -67 c0 -3 -27 8 -60 25 -33 17 -60 33 -60 35 0 3 27 -8
60 -25 33 -17 60 -33 60 -35z m-5730 45 c-8 -5 -19 -10 -25 -10 -5 0 -3 5 5
10 8 5 20 10 25 10 6 0 3 -5 -5 -10z m-50 -20 c-8 -5 -19 -10 -25 -10 -5 0 -3
5 5 10 8 5 20 10 25 10 6 0 3 -5 -5 -10z m-105 -45 c-27 -13 -54 -24 -60 -24
-5 1 13 11 40 24 28 13 55 24 60 24 6 -1 -12 -11 -40 -24z m6015 -50 c0 -3
-27 8 -60 25 -33 17 -60 33 -60 35 0 3 27 -8 60 -25 33 -17 60 -33 60 -35z
m-6120 5 c-8 -5 -19 -10 -25 -10 -5 0 -3 5 5 10 8 5 20 10 25 10 6 0 3 -5 -5
-10z m-60 -25 c-14 -8 -29 -14 -35 -14 -5 0 1 6 15 14 14 8 30 14 35 14 6 0
-1 -6 -15 -14z m7180 2 c0 -1 -30 -32 -67 -67 l-68 -65 65 68 c60 62 70 72 70
64z m-7240 -27 c-8 -5 -19 -10 -25 -10 -5 0 -3 5 5 10 8 5 20 10 25 10 6 0 3
-5 -5 -10z m-60 -25 c-14 -8 -29 -14 -35 -14 -5 0 1 6 15 14 14 8 30 14 35 14
6 0 -1 -6 -15 -14z m-95 -40 c-27 -13 -54 -24 -60 -24 -5 1 13 11 40 24 28 13
55 24 60 24 6 -1 -12 -11 -40 -24z m-140 -60 c-27 -13 -54 -24 -60 -24 -5 1
13 11 40 24 28 13 55 24 60 24 6 -1 -12 -11 -40 -24z m-825 -22 c-11 -17 -11
-17 -6 0 3 10 6 24 7 30 0 9 2 9 5 0 3 -7 0 -20 -6 -30z m740 -13 c-8 -5 -19
-10 -25 -10 -5 0 -3 5 5 10 8 5 20 10 25 10 6 0 3 -5 -5 -10z m7110 -55 c0 -3
-22 6 -50 20 -27 14 -50 28 -50 30 0 3 23 -6 50 -20 28 -14 50 -28 50 -30z
m240 -20 c-41 -41 -77 -75 -79 -75 -3 0 28 34 69 75 41 41 77 75 79 75 3 0
-28 -34 -69 -75z m-7390 61 c0 -6 -172 -77 -177 -73 -3 4 153 74 170 76 4 1 7
-1 7 -3z m7260 -101 c0 -3 -18 4 -40 15 -22 11 -40 23 -40 25 0 3 18 -4 40
-15 22 -11 40 -23 40 -25z m-8000 -2 c-11 -17 -11 -17 -6 0 3 10 6 24 7 30 0
9 2 9 5 0 3 -7 0 -20 -6 -30z m485 -8 c-27 -13 -54 -24 -60 -24 -5 1 13 11 40
24 28 13 55 24 60 24 6 -1 -12 -11 -40 -24z m-125 -49 c0 -6 -172 -77 -177
-73 -3 4 153 74 170 76 4 1 7 -1 7 -3z m-396 -70 c-3 -15 -8 -25 -11 -23 -2 3
-1 17 3 31 3 15 8 25 11 23 2 -3 1 -17 -3 -31z m141 -41 c-27 -13 -54 -24 -60
-24 -5 1 13 11 40 24 28 13 55 24 60 24 6 -1 -12 -11 -40 -24z m-165 -32 c-11
-17 -11 -17 -6 0 3 10 6 24 7 30 0 9 2 9 5 0 3 -7 0 -20 -6 -30z m10 -33 c-8
-5 -19 -10 -25 -10 -5 0 -3 5 5 10 8 5 20 10 25 10 6 0 3 -5 -5 -10z m2458
-165 c-3 -3 -9 2 -12 12 -6 14 -5 15 5 6 7 -7 10 -15 7 -18z m22 -50 c0 -5 -5
-3 -10 5 -5 8 -10 20 -10 25 0 6 5 3 10 -5 5 -8 10 -19 10 -25z m18 -40 c-3
-3 -9 2 -12 12 -6 14 -5 15 5 6 7 -7 10 -15 7 -18z m22 -50 c0 -5 -5 -3 -10 5
-5 8 -10 20 -10 25 0 6 5 3 10 -5 5 -8 10 -19 10 -25z m18 -40 c-3 -3 -9 2
-12 12 -6 14 -5 15 5 6 7 -7 10 -15 7 -18z m22 -50 c0 -5 -5 -3 -10 5 -5 8
-10 20 -10 25 0 6 5 3 10 -5 5 -8 10 -19 10 -25z"/>
<path d="M6790 4492 c-113 -98 -446 -387 -740 -642 -294 -255 -584 -507 -645
-560 -60 -53 -351 -305 -645 -560 -1041 -903 -1210 -1051 -1210 -1062 0 -6 7
-5 18 3 15 13 16 12 3 -4 -8 -9 -16 -15 -19 -12 -7 7 -42 -25 -42 -38 0 -5 8
-3 18 4 15 13 16 12 3 -4 -8 -9 -16 -15 -19 -12 -7 7 -32 -15 -32 -27 0 -6 8
-4 18 3 14 11 13 10 -2 -9 -21 -24 -31 -29 -20 -10 4 7 -2 4 -14 -6 -26 -23
-30 -44 -4 -25 14 11 13 10 -2 -9 -21 -24 -31 -29 -20 -9 4 6 -2 3 -14 -7 -26
-23 -30 -45 -4 -25 15 13 16 12 3 -4 -8 -9 -16 -15 -19 -12 -7 7 -42 -25 -42
-38 0 -6 10 -2 23 9 l22 19 -19 -23 c-11 -12 -21 -20 -24 -17 -7 7 -32 -15
-32 -27 0 -6 8 -4 18 3 14 11 13 10 -2 -9 -21 -24 -31 -29 -20 -10 4 7 -2 4
-14 -6 -26 -23 -30 -45 -4 -25 15 13 16 12 3 -4 -8 -9 -16 -15 -19 -12 -7 7
-42 -25 -42 -38 0 -5 8 -3 18 4 15 13 16 12 3 -4 -8 -9 -16 -15 -19 -12 -7 7
-42 -25 -42 -38 0 -5 8 -3 18 4 15 13 16 12 3 -4 -8 -9 -16 -15 -19 -12 -7 7
-32 -15 -32 -27 0 -6 8 -4 18 3 14 11 13 10 -2 -9 -21 -24 -31 -29 -20 -9 4 6
-2 3 -14 -7 -26 -23 -30 -44 -4 -25 14 11 13 10 -2 -9 -21 -24 -31 -29 -20 -9
4 6 -2 3 -14 -7 -26 -23 -30 -45 -4 -25 15 13 16 12 3 -4 -8 -9 -16 -15 -19
-12 -7 7 -42 -25 -42 -38 0 -6 10 -2 23 9 l22 19 -19 -23 c-11 -12 -21 -20
-24 -17 -7 7 -32 -15 -32 -27 0 -6 8 -4 18 3 14 11 13 10 -2 -9 -21 -24 -31
-29 -20 -10 4 7 -2 4 -14 -6 -26 -23 -30 -45 -4 -25 15 13 16 12 3 -4 -8 -9
-16 -15 -19 -12 -7 7 -42 -25 -42 -38 0 -5 8 -3 18 4 15 13 16 12 3 -4 -8 -9
-16 -15 -19 -12 -7 7 -32 -15 -32 -27 0 -6 8 -4 18 3 14 11 13 10 -2 -9 -21
-24 -31 -29 -20 -9 4 6 -2 3 -14 -7 -26 -23 -30 -44 -4 -25 14 11 13 10 -2 -9
-21 -24 -31 -29 -20 -9 4 6 -2 3 -14 -7 -26 -23 -30 -45 -4 -25 15 13 16 12 3
-4 -8 -9 -16 -15 -19 -12 -7 7 -42 -25 -42 -38 0 -6 10 -2 23 9 l22 19 -19
-23 c-11 -12 -21 -20 -24 -17 -7 7 -32 -15 -32 -27 0 -6 8 -4 18 3 14 11 13
10 -2 -9 -21 -24 -31 -29 -20 -9 4 6 -2 3 -14 -7 -26 -23 -30 -44 -4 -25 14
11 13 10 -2 -9 -21 -24 -31 -29 -20 -9 4 6 -2 3 -14 -7 -26 -23 -30 -45 -4
-25 15 13 16 12 3 -4 -8 -9 -16 -15 -19 -12 -7 7 -42 -25 -42 -38 0 -5 8 -3
18 4 15 13 16 12 3 -4 -8 -9 -16 -15 -19 -12 -7 7 -32 -15 -32 -27 0 -6 8 -4
18 3 14 11 13 10 -2 -9 -21 -24 -31 -29 -20 -9 4 6 -2 3 -14 -7 -26 -23 -30
-44 -4 -25 14 11 13 10 -2 -9 -21 -24 -31 -29 -21 -9 4 6 -12 -8 -34 -33 -22
-25 -40 -49 -41 -55 0 -5 16 8 36 30 l36 40 -32 -43 c-18 -24 -35 -41 -38 -38
-7 7 -32 -14 -32 -26 0 -6 8 -4 18 3 14 11 13 10 -2 -9 -21 -24 -31 -29 -20
-9 4 6 -2 3 -14 -7 -26 -23 -30 -45 -4 -25 15 13 16 12 3 -4 -8 -9 -16 -15
-19 -12 -7 7 -42 -25 -42 -38 0 -5 7 -4 15 3 8 7 15 9 15 4 0 -4 12 3 28 17
l27 24 -29 -32 c-16 -18 -36 -30 -46 -28 -11 2 -36 -20 -74 -66 -31 -38 -56
-71 -56 -74 0 -3 67 54 150 127 82 72 147 134 145 138 -2 4 8 18 23 31 25 22
25 22 8 2 -32 -38 -2 -26 35 14 18 20 25 31 14 23 -11 -8 -7 0 9 18 17 18 32
32 34 32 3 0 -3 -9 -13 -20 -10 -11 -14 -20 -8 -20 12 0 55 45 48 51 -3 3 10
19 28 35 31 28 31 28 8 2 -14 -16 -20 -28 -15 -28 13 0 66 55 59 61 -3 3 10
19 28 35 31 28 31 28 8 2 -34 -39 -11 -35 25 4 16 17 22 27 14 23 -8 -5 -4 4
9 18 14 15 27 27 29 27 3 0 -3 -9 -13 -20 -10 -11 -14 -20 -9 -20 6 0 26 17
45 37 18 20 25 31 14 23 -11 -8 -7 0 9 18 17 18 32 32 34 32 3 0 -3 -9 -13
-20 -10 -11 -14 -20 -9 -20 6 0 26 17 45 37 18 20 25 31 14 23 -11 -8 -7 0 9
18 17 18 32 32 34 32 3 0 -3 -9 -13 -20 -10 -11 -14 -20 -8 -20 12 0 55 45 48
51 -3 3 10 19 28 35 31 28 31 28 8 2 -37 -42 -10 -33 30 9 18 20 25 31 14 23
-11 -8 -7 0 9 18 17 18 32 32 34 32 3 0 -3 -9 -13 -20 -10 -11 -14 -20 -8 -20
12 0 55 45 48 51 -3 3 10 19 28 35 31 28 31 28 8 2 -14 -16 -20 -28 -15 -28
13 0 66 55 59 61 -3 3 7 16 22 30 25 22 26 22 9 2 -34 -40 -6 -25 59 33 36 32
62 60 60 64 -2 4 10 20 28 36 31 29 32 29 8 2 -14 -16 -20 -28 -15 -28 13 0
66 55 59 61 -3 3 7 16 22 30 25 22 26 22 9 2 -30 -35 -3 -27 30 9 16 18 20 26
9 18 -11 -8 -7 0 9 18 17 18 32 32 34 32 3 0 -3 -9 -13 -20 -10 -11 -14 -20
-9 -20 6 0 26 17 45 37 18 20 25 31 14 23 -11 -8 -7 0 9 18 17 18 32 32 34 32
3 0 -3 -9 -13 -20 -10 -11 -14 -20 -8 -20 12 0 55 45 48 51 -3 3 10 19 28 35
31 28 31 28 8 2 -14 -16 -20 -28 -15 -28 13 0 66 55 59 61 -3 3 7 16 22 30 25
22 26 22 9 2 -34 -40 -6 -25 59 33 36 32 62 60 60 64 -2 4 10 20 28 36 31 29
32 29 8 2 -14 -16 -20 -28 -15 -28 13 0 66 55 59 61 -3 3 7 16 22 30 25 22 26
22 9 2 -30 -35 -3 -27 30 9 16 18 20 26 9 18 -11 -8 -4 3 14 23 19 20 37 37
40 37 2 0 -6 -11 -19 -25 -13 -14 -19 -25 -14 -25 13 0 66 55 59 61 -3 3 10
19 28 35 31 28 31 28 8 2 -14 -16 -20 -28 -15 -28 13 0 66 55 59 61 -3 3 7 16
23 30 l27 24 -24 -28 c-37 -41 -10 -32 30 10 18 20 25 31 14 23 -11 -8 -7 0 9
18 17 18 32 32 34 32 3 0 -3 -9 -13 -20 -10 -11 -14 -20 -9 -20 6 0 26 17 45
37 18 20 25 31 14 23 -11 -8 -7 0 9 18 17 18 32 32 34 32 3 0 -3 -9 -13 -20
-10 -11 -14 -20 -8 -20 12 0 55 45 48 51 -3 3 10 19 28 35 31 28 31 28 8 2
-37 -42 -10 -33 30 9 18 20 25 31 14 23 -11 -8 -7 0 9 18 17 18 32 32 34 32 3
0 -3 -9 -13 -20 -10 -11 -14 -20 -8 -20 5 0 22 14 39 32 16 18 20 26 9 18 -11
-8 -7 0 9 18 17 18 32 32 34 32 3 0 -3 -9 -13 -20 -10 -11 -14 -20 -8 -20 12
0 65 55 58 61 -3 3 7 16 22 30 25 22 26 22 9 2 -32 -38 -2 -26 35 14 18 20 25
31 14 23 -11 -8 -7 0 9 18 17 18 32 32 34 32 3 0 -3 -9 -13 -20 -10 -11 -14
-20 -8 -20 5 0 22 14 39 32 16 18 20 26 9 18 -11 -8 -4 3 14 23 19 20 37 37
40 37 2 0 -6 -11 -19 -25 -13 -14 -19 -25 -14 -25 6 0 26 17 45 37 18 20 25
31 14 23 -11 -8 -4 3 14 23 19 20 37 37 40 37 2 0 -6 -11 -19 -25 -13 -14 -19
-25 -14 -25 13 0 66 55 59 61 -3 3 7 16 23 30 l27 24 -24 -27 c-37 -42 -10
-33 30 9 18 20 25 31 14 23 -11 -8 -7 0 9 18 17 18 32 32 34 32 3 0 -3 -9 -13
-20 -10 -11 -14 -20 -8 -20 5 0 22 14 39 32 16 18 20 26 9 18 -11 -8 -4 3 14
23 19 20 37 37 40 37 2 0 -6 -11 -19 -25 -13 -14 -19 -25 -14 -25 6 0 26 17
45 37 18 20 25 31 14 23 -11 -8 -4 3 14 23 19 20 37 37 40 37 2 0 -6 -11 -19
-25 -13 -14 -19 -25 -14 -25 6 0 26 17 45 37 18 20 26 31 17 24 -29 -22 -20
-7 14 25 18 16 24 19 14 7 -30 -35 -3 -27 30 9 16 18 21 26 12 19 -29 -22 -20
-7 14 25 18 16 24 19 14 7 -32 -38 -2 -26 35 14 18 20 25 31 14 23 -11 -8 -7
0 9 18 17 18 32 32 34 32 3 0 -3 -9 -13 -20 -41 -45 5 -15 70 47 39 36 61 60
50 52 -12 -8 -8 0 9 19 17 18 32 32 34 32 3 0 -3 -9 -13 -20 -10 -11 -14 -20
-9 -20 6 0 26 17 45 37 18 20 25 31 14 23 -15 -11 -14 -8 4 13 25 28 43 38 21
12 -7 -8 -8 -15 -3 -15 13 0 55 45 48 52 -3 2 7 15 22 29 25 22 26 22 9 2 -32
-38 -2 -26 35 14 18 20 25 31 14 23 -11 -8 -7 0 9 18 17 18 32 32 34 32 3 0
-3 -9 -13 -20 -10 -11 -14 -20 -8 -20 5 0 22 14 39 32 16 18 20 26 9 18 -11
-8 -4 3 14 23 19 20 37 37 40 37 2 0 -6 -11 -19 -25 -13 -14 -19 -25 -14 -25
6 0 26 17 45 37 18 20 25 31 14 23 -11 -8 -4 3 14 23 19 20 37 37 40 37 2 0
-6 -11 -19 -25 -13 -14 -19 -25 -14 -25 6 0 23 14 40 32 16 17 23 28 17 24
-22 -12 -14 -1 19 30 32 28 32 28 9 2 -37 -42 -10 -33 30 9 18 20 26 31 17 24
-29 -22 -20 -7 14 25 18 16 24 19 14 7 -38 -45 1 -21 69 44 39 36 61 60 50 52
-11 -7 -4 4 14 24 19 20 37 37 40 37 2 0 -6 -11 -19 -25 -13 -14 -19 -25 -14
-25 6 0 26 17 45 37 18 20 26 31 17 24 -29 -22 -20 -7 14 25 18 16 24 19 14 7
-30 -35 -3 -27 30 9 16 18 21 26 12 19 -29 -22 -20 -7 14 25 18 16 24 19 14 7
-11 -13 -15 -23 -9 -23 12 0 65 55 58 61 -3 3 7 16 22 30 25 22 26 22 9 2 -32
-38 -2 -26 35 14 18 20 25 31 14 23 -11 -8 -7 0 9 18 17 18 32 32 34 32 3 0
-3 -9 -13 -20 -10 -11 -14 -20 -8 -20 5 0 22 14 39 32 16 18 20 26 9 18 -11
-8 -4 3 14 23 19 20 37 37 40 37 2 0 -6 -11 -19 -25 -13 -14 -19 -25 -14 -25
6 0 26 17 45 37 18 20 25 31 14 23 -11 -8 -4 3 14 23 19 20 37 37 40 37 2 0
-6 -11 -19 -25 -13 -14 -19 -25 -14 -25 6 0 23 14 40 32 16 17 22 27 14 23 -8
-5 -4 4 9 18 14 15 27 27 29 27 3 0 -3 -9 -13 -20 -10 -11 -14 -20 -9 -20 6 0
26 17 45 37 18 20 26 31 17 24 -29 -22 -20 -7 14 25 18 16 24 19 14 7 -38 -45
1 -21 69 44 39 36 61 60 50 52 -11 -7 -4 4 14 24 19 20 37 37 40 37 2 0 -6
-11 -19 -25 -13 -14 -19 -25 -14 -25 6 0 26 17 45 37 18 20 25 31 14 23 -15
-11 -14 -8 4 13 25 28 43 38 21 12 -24 -29 7 -14 36 17 16 18 20 26 9 18 -11
-8 -7 0 9 18 17 18 32 32 34 32 3 0 -3 -9 -13 -20 -10 -11 -14 -20 -8 -20 16
0 44 36 36 45 -5 4 -3 5 3 2 6 -4 20 3 30 16 16 19 16 20 1 8 -15 -12 -17 -12
-12 0 3 9 -7 21 -27 32 -256 136 -314 167 -318 167 -3 0 -98 -80 -210 -178z
m300 -245 c0 -2 -17 -19 -37 -38 l-38 -34 34 38 c33 34 41 42 41 34z m-760
-660 c0 -2 -17 -19 -37 -38 l-38 -34 34 38 c33 34 41 42 41 34z m-680 -590 c0
-2 -17 -19 -37 -38 l-38 -34 34 38 c33 34 41 42 41 34z m-2030 -1270 c0 -2
-10 -12 -22 -23 l-23 -19 19 23 c18 21 26 27 26 19z m360 -180 c0 -2 -17 -19
-37 -38 l-38 -34 34 38 c33 34 41 42 41 34z m-530 -460 c0 -2 -17 -19 -37 -38
l-38 -34 34 38 c33 34 41 42 41 34z m-910 -790 c0 -2 -15 -16 -32 -33 l-33
-29 29 33 c28 30 36 37 36 29z m-150 -130 c0 -2 -12 -14 -27 -28 l-28 -24 24
28 c23 25 31 32 31 24z"/>
</g>
</svg>
